<?xml version="1.0" encoding="UTF-8"?>
<svg xmlns="http://www.w3.org/2000/svg" xmlns:xlink="http://www.w3.org/1999/xlink" width="50px" height="50px" viewBox="0 0 50 50" version="1.1">
<g id="surface1">
<path style=" stroke:none;fill-rule:nonzero;fill:rgb(0%,0%,0%);fill-opacity:1;" d="M 25 0.78125 C 11.199219 0.78125 0 11.632812 0 25 C 0 38.367188 11.199219 49.21875 25 49.21875 C 38.800781 49.21875 50 38.367188 50 25 C 50 11.632812 38.800781 0.78125 25 0.78125 Z M 35.152344 36.414062 C 34.726562 36.414062 34.464844 36.289062 34.074219 36.0625 C 27.78125 32.390625 20.464844 32.234375 13.234375 33.671875 C 12.84375 33.769531 12.328125 33.925781 12.035156 33.925781 C 11.058594 33.925781 10.445312 33.171875 10.445312 32.382812 C 10.445312 31.375 11.058594 30.898438 11.8125 30.742188 C 20.070312 28.972656 28.507812 29.128906 35.707031 33.296875 C 36.320312 33.679688 36.683594 34.023438 36.683594 34.910156 C 36.683594 35.800781 35.96875 36.414062 35.152344 36.414062 Z M 37.863281 30.007812 C 37.339844 30.007812 36.984375 29.78125 36.625 29.597656 C 30.324219 25.984375 20.925781 24.53125 12.570312 26.726562 C 12.085938 26.859375 11.824219 26.984375 11.371094 26.984375 C 10.292969 26.984375 9.414062 26.132812 9.414062 25.089844 C 9.414062 24.042969 9.941406 23.351562 10.976562 23.066406 C 13.78125 22.304688 16.644531 21.738281 20.835938 21.738281 C 27.378906 21.738281 33.699219 23.3125 38.679688 26.183594 C 39.496094 26.652344 39.820312 27.257812 39.820312 28.105469 C 39.808594 29.160156 38.960938 30.007812 37.863281 30.007812 Z M 40.988281 22.566406 C 40.464844 22.566406 40.140625 22.441406 39.6875 22.1875 C 32.511719 18.035156 19.675781 17.039062 11.371094 19.285156 C 11.007812 19.382812 10.554688 19.539062 10.070312 19.539062 C 8.738281 19.539062 7.722656 18.535156 7.722656 17.234375 C 7.722656 15.90625 8.570312 15.15625 9.476562 14.902344 C 13.023438 13.894531 16.996094 13.417969 21.320312 13.417969 C 28.679688 13.417969 36.390625 14.902344 42.027344 18.085938 C 42.8125 18.523438 43.328125 19.128906 43.328125 20.292969 C 43.328125 21.621094 42.21875 22.570312 40.988281 22.570312 Z M 40.988281 22.566406 "/>
</g>
</svg>
